<?xml version="1.0" encoding="UTF-8" standalone="no"?>
<!-- Created with Inkscape (http://www.inkscape.org/) -->

<svg
   xmlns:dc="http://purl.org/dc/elements/1.1/"
   xmlns:cc="http://creativecommons.org/ns#"
   xmlns:rdf="http://www.w3.org/1999/02/22-rdf-syntax-ns#"
   xmlns:svg="http://www.w3.org/2000/svg"
   xmlns="http://www.w3.org/2000/svg"
   xmlns:sodipodi="http://sodipodi.sourceforge.net/DTD/sodipodi-0.dtd"
   xmlns:inkscape="http://www.inkscape.org/namespaces/inkscape"
   width="26.22998"
   height="45.212669"
   id="svg2"
   version="1.1"
   inkscape:version="0.48.4 r9939"
   sodipodi:docname="twitter.svg">
  <defs
     id="defs4">
    <linearGradient
       id="linearGradient4180">
      <stop
         style="stop-color:#4c86ff;stop-opacity:1;"
         offset="0"
         id="stop4182" />
      <stop
         style="stop-color:#131c49;stop-opacity:1;"
         offset="1"
         id="stop4184" />
    </linearGradient>
  </defs>
  <sodipodi:namedview
     id="base"
     pagecolor="#ffffff"
     bordercolor="#666666"
     borderopacity="1.0"
     inkscape:pageopacity="0.0"
     inkscape:pageshadow="2"
     inkscape:zoom="1.0606602"
     inkscape:cx="-504.09402"
     inkscape:cy="-126.33211"
     inkscape:document-units="px"
     inkscape:current-layer="layer1"
     showgrid="false"
     inkscape:window-width="1920"
     inkscape:window-height="1017"
     inkscape:window-x="-8"
     inkscape:window-y="-8"
     inkscape:window-maximized="1"
     inkscape:object-nodes="true"
     inkscape:object-paths="false"
     inkscape:snap-midpoints="false"
     inkscape:snap-global="true"
     inkscape:snap-smooth-nodes="true"
     showguides="true"
     inkscape:guide-bbox="true"
     inkscape:snap-intersection-paths="false"
     fit-margin-top="0"
     fit-margin-left="0"
     fit-margin-right="0"
     fit-margin-bottom="0">
    <inkscape:grid
       type="xygrid"
       id="grid2985"
       empspacing="5"
       visible="true"
       enabled="true"
       snapvisiblegridlinesonly="true"
       originx="-448.56631px"
       originy="-213.15414px" />
  </sodipodi:namedview>
  <metadata
     id="metadata7">
    <rdf:RDF>
      <cc:Work
         rdf:about="">
        <dc:format>image/svg+xml</dc:format>
        <dc:type
           rdf:resource="http://purl.org/dc/dcmitype/StillImage" />
        <dc:title></dc:title>
      </cc:Work>
    </rdf:RDF>
  </metadata>
  <g
     inkscape:label="Layer 1"
     inkscape:groupmode="layer"
     id="layer1"
     transform="translate(-448.56631,-793.99557)">
    <path
       style="fill:#532f16;fill-opacity:1;stroke:none"
       d="m 464.59574,839.0993 c -1.52734,-0.1369 -2.58741,-0.3724 -3.84547,-0.8543 l -1.06982,-0.4098 -1.01193,-0.6627 -1.01192,-0.6627 -0.85869,-0.9212 -0.85868,-0.9211 -0.55794,-0.941 c -0.6873,-1.1593 -1.17319,-2.431 -1.46085,-3.8236 l -0.21917,-1.0611 0,-7.70831 0,-7.70831 -2.56748,0 -2.56748,0 0,-3.57747 0,-3.57748 0.90801,-0.39557 c 0.4994,-0.21756 1.29565,-0.6461 1.76947,-0.95231 l 0.86149,-0.55677 1.01824,-0.98682 1.01825,-0.98681 0.59603,-0.9021 c 1.33241,-2.01661 1.98626,-3.84112 2.49919,-6.97384 l 0.0852,-0.52044 3.74085,0 3.74085,0 0,5.62072 0,5.62069 4.0941,0 4.0941,0 0,4.09411 0,4.09409 -4.17292,0 -4.17291,0 0.0518,6.76568 0.0518,6.76566 0.24668,0.74913 0.24667,0.74915 0.71713,0.7128 0.71715,0.7128 0.57123,0.1687 0.57123,0.1688 0.89849,0 0.89848,0 1.09777,-0.2954 c 0.60377,-0.1626 1.29355,-0.3247 1.53283,-0.3603 l 0.43507,-0.065 1.05684,3.1707 1.05686,3.1707 0,0.4443 0,0.4443 -0.62846,0.4324 c -0.8745,0.6017 -1.98631,1.0713 -3.47282,1.467 l -1.26834,0.3376 -1.37459,0.1336 c -1.51361,0.1472 -1.82913,0.1473 -3.45633,0 z"
       id="path3054"
       inkscape:connector-curvature="0" />
    <path
       style="fill:#000000"
       d=""
       id="path3052"
       inkscape:connector-curvature="0" />
  </g>
</svg>
