<?xml version="1.0" encoding="UTF-8" standalone="no"?>
<!-- Created with Inkscape (http://www.inkscape.org/) -->

<svg
   xmlns:dc="http://purl.org/dc/elements/1.1/"
   xmlns:cc="http://creativecommons.org/ns#"
   xmlns:rdf="http://www.w3.org/1999/02/22-rdf-syntax-ns#"
   xmlns:svg="http://www.w3.org/2000/svg"
   xmlns="http://www.w3.org/2000/svg"
   xmlns:sodipodi="http://sodipodi.sourceforge.net/DTD/sodipodi-0.dtd"
   xmlns:inkscape="http://www.inkscape.org/namespaces/inkscape"
   width="50.689999"
   height="41.181469"
   id="svg2"
   version="1.1"
   inkscape:version="0.48.4 r9939"
   sodipodi:docname="email.svg">
  <defs
     id="defs4">
    <linearGradient
       id="linearGradient4180">
      <stop
         style="stop-color:#4c86ff;stop-opacity:1;"
         offset="0"
         id="stop4182" />
      <stop
         style="stop-color:#131c49;stop-opacity:1;"
         offset="1"
         id="stop4184" />
    </linearGradient>
  </defs>
  <sodipodi:namedview
     id="base"
     pagecolor="#ffffff"
     bordercolor="#666666"
     borderopacity="1.0"
     inkscape:pageopacity="0.0"
     inkscape:pageshadow="2"
     inkscape:zoom="1.0606602"
     inkscape:cx="-177.57495"
     inkscape:cy="-188.72366"
     inkscape:document-units="px"
     inkscape:current-layer="layer1"
     showgrid="false"
     inkscape:window-width="1920"
     inkscape:window-height="1017"
     inkscape:window-x="-8"
     inkscape:window-y="-8"
     inkscape:window-maximized="1"
     inkscape:object-nodes="true"
     inkscape:object-paths="false"
     inkscape:snap-midpoints="false"
     inkscape:snap-global="true"
     inkscape:snap-smooth-nodes="true"
     showguides="true"
     inkscape:guide-bbox="true"
     inkscape:snap-intersection-paths="false"
     fit-margin-top="0"
     fit-margin-left="0"
     fit-margin-right="0"
     fit-margin-bottom="0">
    <inkscape:grid
       type="xygrid"
       id="grid2985"
       empspacing="5"
       visible="true"
       enabled="true"
       snapvisiblegridlinesonly="true"
       originx="-340.76318px"
       originy="-214.86678px" />
  </sodipodi:namedview>
  <metadata
     id="metadata7">
    <rdf:RDF>
      <cc:Work
         rdf:about="">
        <dc:format>image/svg+xml</dc:format>
        <dc:type
           rdf:resource="http://purl.org/dc/dcmitype/StillImage" />
        <dc:title></dc:title>
      </cc:Work>
    </rdf:RDF>
  </metadata>
  <g
     inkscape:label="Layer 1"
     inkscape:groupmode="layer"
     id="layer1"
     transform="translate(-340.76318,-796.31413)">
    <path
       style="fill:#000000"
       d=""
       id="path3052"
       inkscape:connector-curvature="0" />
    <path
       style="fill:#532f16;fill-opacity:1;stroke:none"
       d="m 354.84719,837.4563 c -0.2448,-0.019 -0.72547,-0.037 -1.06817,-0.04 l -0.6231,0 -0.77888,-0.1126 c -0.99263,-0.1434 -2.11944,-0.3691 -3.13773,-0.6284 l -0.80114,-0.2039 -0.8755,-0.2845 c -1.66017,-0.5394 -2.73946,-0.9847 -4.30955,-1.778 l -1.00141,-0.5059 -0.67476,-0.4003 -0.67477,-0.4004 -0.0695,-0.1393 -0.0695,-0.1393 0.0636,-0.064 0.0636,-0.064 0.10201,0.023 c 0.0561,0.013 0.35175,0.044 0.65702,0.069 l 0.55503,0.046 1.02628,0 1.02629,0 0.55502,-0.046 c 3.83402,-0.319 7.25515,-1.5668 10.47529,-3.8208 l 0.48479,-0.3394 -0.55155,-0.055 -0.55155,-0.055 -0.55634,-0.1154 -0.55634,-0.1155 -0.61336,-0.203 -0.61336,-0.20311 -0.65509,-0.32216 -0.65509,-0.32216 -0.46732,-0.31029 c -0.89863,-0.59666 -1.53633,-1.15767 -2.2121,-1.94609 l -0.41671,-0.48617 -0.3555,-0.53301 -0.3555,-0.53301 -0.28493,-0.58308 c -0.15672,-0.32067 -0.3566,-0.77745 -0.44418,-1.01505 l -0.15924,-0.432 0,-0.119 0,-0.119 0.18915,0.0237 c 0.10405,0.013 0.43951,0.0579 0.7455,0.0996 l 0.55634,0.0759 0.84563,-0.0237 0.84562,-0.0237 0.42283,-0.0713 c 0.23254,-0.0392 0.46122,-0.0832 0.50817,-0.0977 l 0.0854,-0.0263 -0.49101,-0.14868 c -0.93782,-0.28396 -1.82442,-0.70668 -2.70618,-1.29024 l -0.48958,-0.32401 -0.42568,-0.35543 -0.42567,-0.35543 -0.43185,-0.45417 -0.43186,-0.45419 -0.30561,-0.4066 c -1.02928,-1.36944 -1.70144,-2.91341 -1.98066,-4.54966 -0.0816,-0.47805 -0.15898,-1.34471 -0.15961,-1.78732 l -4.6e-4,-0.32267 0.11208,0 0.11208,0 0.43313,0.21657 c 0.58917,0.2946 1.13278,0.5065 1.7686,0.68944 l 0.53383,0.15358 0.56956,0.0961 0.56955,0.0961 0.0925,-0.0139 0.0926,-0.0139 -0.44821,-0.3699 -0.44821,-0.3699 -0.36967,-0.38936 c -0.50798,-0.53504 -0.8169,-0.92157 -1.21006,-1.51408 l -0.33493,-0.50476 -0.28813,-0.58461 c -0.35774,-0.7258 -0.56793,-1.29208 -0.75984,-2.04695 l -0.14871,-0.58497 -0.08,-0.53409 -0.08,-0.53408 -0.002,-1.00141 -0.002,-1.0014 0.0566,-0.40056 c 0.0311,-0.22031 0.098,-0.61086 0.14862,-0.86788 l 0.0921,-0.46734 0.22027,-0.67223 0.22025,-0.67223 0.32058,-0.64071 0.32058,-0.64073 0.11804,0 0.11803,0 0.42674,0.49932 c 0.23473,0.27464 0.6989,0.79063 1.03152,1.14668 l 0.60478,0.64735 0.71974,0.66404 c 4.92765,4.54636 10.90692,7.21585 17.5113,7.81807 0.44746,0.0409 0.82259,0.0652 0.8336,0.0541 0.011,-0.011 -0.0216,-0.29917 -0.0726,-0.64033 l -0.0927,-0.62029 -0.003,-0.9124 -0.003,-0.91239 0.0549,-0.44506 c 0.0302,-0.24479 0.10498,-0.68541 0.16625,-0.97916 l 0.11139,-0.53408 0.19899,-0.60084 0.19899,-0.60085 0.32714,-0.6676 0.32714,-0.6676 0.31226,-0.46733 c 1.41902,-2.12364 3.419,-3.59266 5.85658,-4.30178 l 0.53825,-0.15659 0.68986,-0.0517 0.68986,-0.0518 1.02366,6.3e-4 1.02367,6.3e-4 0.57859,0.0368 0.57859,0.0368 0.40056,0.0905 c 1.67162,0.37775 3.42693,1.33699 4.72246,2.58072 l 0.36081,0.34637 0.0644,0 c 0.1258,0 1.35942,-0.317 1.92801,-0.49545 1.40192,-0.43997 2.67409,-0.98529 3.94398,-1.69057 l 0.47148,-0.26185 0.11824,0 0.11825,0 0,0.13504 0,0.13505 -0.20582,0.52143 c -0.48718,1.2342 -1.11357,2.24391 -2.01504,3.24822 l -0.36044,0.40154 -0.434,0.37634 c -0.23869,0.20699 -0.56418,0.47136 -0.72329,0.5875 -0.15912,0.11612 -0.29505,0.21668 -0.30206,0.22342 -0.0371,0.0357 1.05288,-0.18478 1.7617,-0.3563 l 0.8143,-0.19704 0.78795,-0.26428 c 0.43338,-0.14534 1.02829,-0.36386 1.32204,-0.48557 l 0.53409,-0.22129 0.0145,0.0627 0.0145,0.0627 0.0412,-0.0254 0.0412,-0.0254 0,0.0667 c 0,0.0367 -0.02,0.0791 -0.0445,0.0943 l -0.0445,0.0275 0,0.13599 0,0.136 -0.44035,0.58461 c -0.61443,0.81574 -1.06968,1.35029 -1.75294,2.05823 l -0.58839,0.60964 -0.5786,0.5083 c -0.31823,0.27954 -0.81263,0.6897 -1.09868,0.91143 l -0.52011,0.40317 0.0246,0.69509 0.0246,0.69509 -0.0493,1.03162 c -0.0823,1.72315 -0.23655,2.98808 -0.56347,4.62076 l -0.19606,0.97916 -0.22676,0.84563 c -1.26344,4.71149 -3.58365,9.02605 -6.7737,12.59611 l -0.55619,0.6224 -0.81868,0.8012 -0.81868,0.8011 -0.66733,0.5578 c -2.84354,2.3767 -5.76308,4.0085 -9.23492,5.1617 l -1.04592,0.3474 -0.89014,0.2242 c -0.98207,0.2474 -2.20303,0.492 -3.16,0.6331 l -0.62308,0.092 -1.02367,0.043 c -0.56301,0.023 -1.80476,0.05 -2.75943,0.059 l -1.73576,0.016 -0.44508,-0.034 z"
       id="path3056-1"
       inkscape:connector-curvature="0" />
  </g>
</svg>
